<?xml version="1.0" encoding="UTF-8"?>
<svg version="1.1" xmlns="http://www.w3.org/2000/svg" width="275" height="569">
<path d="M0 0 C3.45241528 3.08251364 5.70568356 6.41387524 6.23828125 11.09375 C6.4542132 18.09449113 4.72852449 23.59283982 2 30 C2.928125 30.103125 3.85625 30.20625 4.8125 30.3125 C8 32 8 32 8.92578125 34.4765625 C9.38721088 36.4305494 9.80120719 38.39642463 10.1640625 40.37109375 C11.19068043 43.59966322 12.06813477 44.36395917 15 46 C21.37086486 48.68709791 28.43827134 49.27188227 35.23828125 50.23632812 C41.96349138 51.30403276 49.97949655 52.97949655 55 58 C57.01672245 78.43171274 46.99716341 96.14605681 37.22924805 113.25708008 C29.35712184 127.10151916 22.11833795 142.4495661 25.9375 158.6875 C28.5584577 166.72264263 34.17785981 173.37085187 39.30859375 179.96875 C54.26562322 199.25476374 61.51012601 222.48278845 69.84790039 245.13769531 C75.79564505 261.29543071 81.9932204 277.2627457 89 293 C89.3913916 293.88059082 89.7827832 294.76118164 90.18603516 295.66845703 C98.42798315 314.03813319 108.27091076 334.43089897 123.421875 348.14453125 C126 351 126 351 126.0625 353.60546875 C120.2682554 366.66382147 106.58572133 376.1581042 93.6875 381.25 C82.32543966 385.06395003 70.44564291 386.12368482 58.671875 383.4765625 C38.89092336 379.94838107 21.34748317 386.11969381 3 393 C2.67 411.48 2.34 429.96 2 449 C4.31 449.33 6.62 449.66 9 450 C17.91134796 453.08979773 23.86196722 458.46610966 28.0390625 466.859375 C31.23358356 474.2843133 31.89605669 482.40568085 33.06640625 490.33984375 C34.64253088 500.37067663 36.79352584 508.61336399 44 516 C48.65251339 518.9115729 53.69167612 518.63699887 59 518 C62.18880607 516.53651397 62.18880607 516.53651397 64 514 C64.87943404 511.36539052 64.87943404 511.36539052 65 509 C64.484375 509.515625 63.96875 510.03125 63.4375 510.5625 C59.99137846 512.59482809 57.79356604 511.93049733 54 511 C52.54852097 508.09704195 52.62760975 506.22738221 53 503 C55.45811152 498.71812833 55.45811152 498.71812833 58 497 C62.6796597 495.86449434 66.10838359 496.5541918 70.375 498.6875 C73.77879947 501.68608525 75.68278946 503.69728645 76.31640625 508.296875 C76.60536747 514.44895254 75.67856648 518.06297657 72 523 C66.98508566 528.13154025 61.51309868 530.83927711 54.2578125 531.09765625 C48.06128822 530.74577606 43.18981326 529.39716987 38 526 C37.40574219 525.63519531 36.81148437 525.27039063 36.19921875 524.89453125 C27.13008597 518.35912514 23.49501455 506.07266836 21.5390625 495.5859375 C20.96892443 491.79327988 20.51104427 487.99632507 20.0625 484.1875 C19.31628897 478.11030681 17.80499457 473.39141814 15 468 C14.67 467.01 14.34 466.02 14 465 C10.38797281 462.6883026 5.9215244 461.47057165 2 460 C1.67 479.47 1.34 498.94 1 519 C1.99 519.33 2.98 519.66 4 520 C4.2130417 523.12461161 4.25320885 525.41445453 3 528.3125 C-0.0118542 530.85375198 -3.18665006 531.17096891 -7 531 C-9.9375 530 -9.9375 530 -12 528 C-13.48235294 521.96470588 -13.48235294 521.96470588 -12 519 C-11.34 519 -10.68 519 -10 519 C-10.33 499.53 -10.66 480.06 -11 460 C-21.69444822 464.91852103 -21.69444822 464.91852103 -26.51171875 474.0703125 C-28.08082 478.8828047 -28.77025512 483.61517126 -29.375 488.625 C-31.25095776 502.22316549 -33.96850033 515.91027276 -45.34375 524.83984375 C-53.12504235 530.2084302 -59.6018018 530.72052853 -69 530 C-75.77749255 528.30562686 -79.93683697 523.44110528 -84 518 C-85.99765403 514.00469193 -85.64943255 509.33153639 -85 505 C-83.02722292 501.50970208 -80.60310735 498.80155367 -77 497 C-70.89602404 496.49133534 -67.89230834 496.94296382 -63 501 C-61.60064987 503.79870027 -61.74734595 505.90498792 -62 509 C-63.1875 510.875 -63.1875 510.875 -65 512 C-68.22243543 512.4957593 -69.5588385 512.28615881 -72.3125 510.5 C-72.869375 510.005 -73.42625 509.51 -74 509 C-73.38125 510.670625 -73.38125 510.670625 -72.75 512.375 C-72.40195313 513.31472656 -72.40195313 513.31472656 -72.046875 514.2734375 C-70.66236743 516.55684177 -69.49805038 517.09928201 -67 518 C-62.53767734 518.55869731 -58.38253891 518.55301557 -54.1875 516.875 C-43.65264269 507.8451223 -42.3036041 495.35334047 -40.578125 482.22851562 C-39.06559216 471.64730529 -36.37686989 462.16652367 -28 455 C-22.58826767 451.50238521 -17.4300836 449.41935328 -11 449 C-11.16265854 448.27947952 -11.32531708 447.55895905 -11.49290466 446.81660461 C-11.979912 444.11157658 -12.12061483 441.67794091 -12.11352539 438.93432617 C-12.11341209 437.46336739 -12.11341209 437.46336739 -12.11329651 435.96269226 C-12.10813522 434.9166835 -12.10297394 433.87067474 -12.09765625 432.79296875 C-12.0962413 431.71243729 -12.09482635 430.63190582 -12.09336853 429.51863098 C-12.0877808 426.07489224 -12.0752305 422.63121902 -12.0625 419.1875 C-12.05748342 416.84961032 -12.05292079 414.51171961 -12.04882812 412.17382812 C-12.03781538 406.44919647 -12.02108941 400.72460292 -12 395 C-12.60400635 395.16081055 -13.2080127 395.32162109 -13.83032227 395.48730469 C-29.71992279 399.24202069 -51.88283244 394.68028956 -65.94140625 386.9296875 C-68.28663906 385.43673228 -70.34364631 383.70041091 -72.4375 381.875 C-77.74671488 377.99020863 -83.59486972 377.54160576 -90 378 C-91.2375 378.20625 -92.475 378.4125 -93.75 378.625 C-106.65902291 380.37494613 -117.89788325 374.23556699 -128 367 C-128.886875 366.38125 -129.77375 365.7625 -130.6875 365.125 C-133.96060346 362.1172833 -136.44242378 358.62103575 -139 355 C-137.42975537 351.35873003 -135.17444315 348.77548831 -132.5625 345.8125 C-108.73424707 317.90514366 -94.83500747 282.02104967 -81.83581543 248.17462158 C-64.35427886 202.69122254 -64.35427886 202.69122254 -51.59033203 183.92773438 C-50.53414266 182.37445619 -49.48035031 180.81954593 -48.42871094 179.26318359 C-47.38054125 177.71436247 -46.32559024 176.17010071 -45.26269531 174.63134766 C-37.4964157 163.1800217 -34.51276791 153.24978228 -37.0625 139.5 C-40.43876874 124.93600439 -47.98156959 111.90432011 -55.0246582 98.84301758 C-61.85540318 85.98974914 -66.85711817 72.78619801 -65 58 C-62.43240949 53.55780188 -57.67605919 52.40969432 -53 51 C-51.06032028 50.63195399 -49.11116036 50.31109243 -47.15625 50.03515625 C-46.07472656 49.87466797 -44.99320312 49.71417969 -43.87890625 49.54882812 C-41.62684965 49.22468819 -39.37423924 48.90437291 -37.12109375 48.58789062 C-29.17812929 47.44685141 -29.17812929 47.44685141 -22 44 C-19.2419156 39.81532022 -18.49466962 35.9466962 -18 31 C-14.535 30.505 -14.535 30.505 -11 30 C-11.34933594 29.45472656 -11.69867188 28.90945312 -12.05859375 28.34765625 C-15.79194407 22.16065927 -17.95765359 16.83498276 -16.51953125 9.57421875 C-15.20850239 5.14859094 -13.79495181 1.84621386 -10 -1 C-5.90844402 -2.36385199 -3.98143212 -1.57884377 0 0 Z " fill="#CA2334" transform="translate(147,23)"/>
<path d="M0 0 C-1.65 0.66 -3.3 1.32 -5 2 C-5.33 20.48 -5.66 38.96 -6 58 C-3.69 58.33 -1.38 58.66 1 59 C9.91134796 62.08979773 15.86196722 67.46610966 20.0390625 75.859375 C23.23358356 83.2843133 23.89605669 91.40568085 25.06640625 99.33984375 C26.64253088 109.37067663 28.79352584 117.61336399 36 125 C40.65251339 127.9115729 45.69167612 127.63699887 51 127 C54.18880607 125.53651397 54.18880607 125.53651397 56 123 C56.87943404 120.36539052 56.87943404 120.36539052 57 118 C56.484375 118.515625 55.96875 119.03125 55.4375 119.5625 C51.99137846 121.59482809 49.79356604 120.93049733 46 120 C44.54852097 117.09704195 44.62760975 115.22738221 45 112 C47.45811152 107.71812833 47.45811152 107.71812833 50 106 C54.6796597 104.86449434 58.10838359 105.5541918 62.375 107.6875 C65.77879947 110.68608525 67.68278946 112.69728645 68.31640625 117.296875 C68.60536747 123.44895254 67.67856648 127.06297657 64 132 C58.98508566 137.13154025 53.51309868 139.83927711 46.2578125 140.09765625 C40.06128822 139.74577606 35.18981326 138.39716987 30 135 C29.40574219 134.63519531 28.81148438 134.27039063 28.19921875 133.89453125 C19.13008597 127.35912514 15.49501455 115.07266836 13.5390625 104.5859375 C12.96892443 100.79327988 12.51104427 96.99632507 12.0625 93.1875 C11.31628897 87.11030681 9.80499457 82.39141814 7 77 C6.67 76.01 6.34 75.02 6 74 C2.38797281 71.6883026 -2.0784756 70.47057165 -6 69 C-6.33 88.47 -6.66 107.94 -7 128 C-6.01 128.33 -5.02 128.66 -4 129 C-3.7869583 132.12461161 -3.74679115 134.41445453 -5 137.3125 C-8.0118542 139.85375198 -11.18665006 140.17096891 -15 140 C-17.9375 139 -17.9375 139 -20 137 C-21.48235294 130.96470588 -21.48235294 130.96470588 -20 128 C-19.34 128 -18.68 128 -18 128 C-18.33 108.53 -18.66 89.06 -19 69 C-29.69444822 73.91852103 -29.69444822 73.91852103 -34.51171875 83.0703125 C-36.08082 87.8828047 -36.77025512 92.61517126 -37.375 97.625 C-39.25095776 111.22316549 -41.96850033 124.91027276 -53.34375 133.83984375 C-61.12504235 139.2084302 -67.6018018 139.72052853 -77 139 C-83.77749255 137.30562686 -87.93683697 132.44110528 -92 127 C-93.99765403 123.00469193 -93.64943255 118.33153639 -93 114 C-91.02722292 110.50970208 -88.60310735 107.80155367 -85 106 C-78.89602404 105.49133534 -75.89230834 105.94296382 -71 110 C-69.60064987 112.79870027 -69.74734595 114.90498792 -70 118 C-71.1875 119.875 -71.1875 119.875 -73 121 C-76.22243543 121.4957593 -77.5588385 121.28615881 -80.3125 119.5 C-80.869375 119.005 -81.42625 118.51 -82 118 C-81.5875 119.11375 -81.175 120.2275 -80.75 121.375 C-80.51796875 122.00148438 -80.2859375 122.62796875 -80.046875 123.2734375 C-78.66236743 125.55684177 -77.49805038 126.09928201 -75 127 C-70.53767734 127.55869731 -66.38253891 127.55301557 -62.1875 125.875 C-51.65264269 116.8451223 -50.3036041 104.35334047 -48.578125 91.22851562 C-47.06559216 80.64730529 -44.37686989 71.16652367 -36 64 C-30.24831267 60.28267154 -25.89905645 58.98557949 -19 58 C-19 39.85 -19 21.7 -19 3 C-14.71 2.01 -10.42 1.02 -6 0 C-3 -1 -3 -1 0 0 Z " fill="#454444" transform="translate(155,414)"/>
<path d="M0 0 C3.45241528 3.08251364 5.70568356 6.41387524 6.23828125 11.09375 C6.4542132 18.09449113 4.72852449 23.59283982 2 30 C2.928125 30.103125 3.85625 30.20625 4.8125 30.3125 C8 32 8 32 8.92578125 34.4765625 C9.38721088 36.4305494 9.80120719 38.39642463 10.1640625 40.37109375 C11.19068043 43.59966322 12.06813477 44.36395917 15 46 C21.37086486 48.68709791 28.43827134 49.27188227 35.23828125 50.23632812 C41.96349138 51.30403276 49.97949655 52.97949655 55 58 C55.07258946 60.18639453 55.08373783 62.37500389 55.0625 64.5625 C55.05347656 65.76003906 55.04445313 66.95757812 55.03515625 68.19140625 C55.02355469 69.11824219 55.01195312 70.04507813 55 71 C54.67 71 54.34 71 54 71 C53.67 67.04 53.34 63.08 53 59 C49.535 57.515 49.535 57.515 46 56 C46 55.34 46 54.68 46 54 C45.071875 54.04125 44.14375 54.0825 43.1875 54.125 C40 54 40 54 37 52 C37.05220703 52.90878906 37.05220703 52.90878906 37.10546875 53.8359375 C37.40007603 62.95473429 35.63785024 70.72535452 30 78 C27.20542701 80.79457299 24.32082696 80.53646631 20.5625 80.875 C11.08317377 81.89755123 2.70277346 84.17087414 -5 90 C-5.64066406 89.51789063 -6.28132813 89.03578125 -6.94140625 88.5390625 C-8.23884766 87.59160156 -8.23884766 87.59160156 -9.5625 86.625 C-10.40941406 85.99851562 -11.25632813 85.37203125 -12.12890625 84.7265625 C-18.94758273 80.6260795 -25.73809444 80.76576838 -33.4765625 80.734375 C-37.28112499 79.94140632 -38.70589896 78.91832354 -40.96777344 75.77392578 C-42.67495143 72.84006692 -43.81213429 69.78662947 -44.8125 66.5625 C-45.02841797 65.93279297 -45.24433594 65.30308594 -45.46679688 64.65429688 C-46.86598577 60.33235786 -47.20424146 56.52248953 -47 52 C-48.2375 52.350625 -49.475 52.70125 -50.75 53.0625 C-53.903292 53.95593273 -55.86774164 54.00881294 -59 53 C-55.04896704 51.59085194 -51.30735318 50.62108569 -47.15625 50.03515625 C-46.07472656 49.87466797 -44.99320313 49.71417969 -43.87890625 49.54882812 C-41.62684965 49.22468819 -39.37423924 48.90437291 -37.12109375 48.58789062 C-29.17812929 47.44685141 -29.17812929 47.44685141 -22 44 C-19.2419156 39.81532022 -18.49466962 35.9466962 -18 31 C-15.69 30.67 -13.38 30.34 -11 30 C-11.34933594 29.45472656 -11.69867188 28.90945312 -12.05859375 28.34765625 C-15.79194407 22.16065927 -17.95765359 16.83498276 -16.51953125 9.57421875 C-15.20850239 5.14859094 -13.79495181 1.84621386 -10 -1 C-5.90844402 -2.36385199 -3.98143212 -1.57884377 0 0 Z " fill="#DBB986" transform="translate(147,23)"/>
<path d="M0 0 C0.33 0 0.66 0 1 0 C0.40568375 8.42201188 -0.59490072 16.71888782 -1.875 25.0625 C-2.05208496 26.23337158 -2.22916992 27.40424316 -2.41162109 28.6105957 C-2.76912701 30.96694328 -3.1286249 33.32298961 -3.49023438 35.67871094 C-3.95142859 38.68354143 -4.40615972 41.68927085 -4.859375 44.6953125 C-5.1139943 46.35946523 -5.36916086 48.02353437 -5.625 49.6875 C-5.73569824 50.42170166 -5.84639648 51.15590332 -5.96044922 51.91235352 C-6.50226177 55.37375477 -7.15691196 58.75075081 -8.03125 62.14453125 C-8.86277041 65.45384836 -9.43492178 68.62307324 -9.875 72 C-10.71828344 77.75026347 -12.00765757 83.31658891 -13.47485352 88.93139648 C-14.60347557 93.28716413 -15.51566513 97.63072089 -16.3125 102.0625 C-19.13485382 116.67050711 -24.13779712 130.9569917 -29 145 C-36.42857143 144 -36.42857143 144 -40 143 C-40 142.34 -40 141.68 -40 141 C-41.216875 141.165 -42.43375 141.33 -43.6875 141.5 C-49.7853726 142.19161175 -55.87187237 142.08524443 -62 142 C-62 141.67 -62 141.34 -62 141 C-61.07703125 140.94457031 -60.1540625 140.88914062 -59.203125 140.83203125 C-55.85550509 140.31107857 -55.85550509 140.31107857 -54.171875 137.63671875 C-53.70265625 136.66347656 -53.2334375 135.69023437 -52.75 134.6875 C-52.27046875 133.72199219 -51.7909375 132.75648438 -51.296875 131.76171875 C-50.86890625 130.85035156 -50.4409375 129.93898438 -50 129 C-49.33599069 127.66534129 -48.67045902 126.33143041 -48 125 C-47.34 125 -46.68 125 -46 125 C-45.74089844 124.15050781 -45.48179688 123.30101562 -45.21484375 122.42578125 C-43.94206515 118.83662744 -42.32118839 115.55175606 -40.5625 112.1875 C-33.1407279 97.64467306 -26.19720858 82.58826255 -21.09765625 67.0625 C-20.20184979 64.56316811 -19.20811 62.24663061 -18.09375 59.84375 C-15.7004003 54.54073995 -14.06792512 49.0764203 -12.4375 43.5 C-11.85401742 41.53090802 -11.26939674 39.5621529 -10.68359375 37.59375 C-10.40362549 36.64999512 -10.12365723 35.70624023 -9.83520508 34.73388672 C-9.05254857 32.17200787 -8.21615991 29.63676913 -7.3515625 27.1015625 C-6.31743223 24.04401481 -5.49372748 21.0611574 -4.9375 17.875 C-3.7894477 11.74572904 -2.0140231 5.8982105 0 0 Z " fill="#BA1625" transform="translate(105,258)"/>
<path d="M0 0 C3.49550246 3.12098434 5.77086594 6.47952534 6.203125 11.234375 C6.31003491 16.97187355 5.79333823 20.95050398 3 26 C2.34 26.33 1.68 26.66 1 27 C0.67 28.32 0.34 29.64 0 31 C-3.63 31 -7.26 31 -11 31 C-11.66 29.35 -12.32 27.7 -13 26 C-13.515625 25.2575 -14.03125 24.515 -14.5625 23.75 C-17.40084352 18.32012544 -17.570484 13.01862725 -15.8125 7.1875 C-14.47498463 3.68797348 -13.05558509 1.29168882 -10 -1 C-5.90844402 -2.36385199 -3.98143212 -1.57884377 0 0 Z " fill="#3D3735" transform="translate(147,23)"/>
<path d="M0 0 C0.66 0.99 1.32 1.98 2 3 C2.99 3.66 3.98 4.32 5 5 C5 5.33 5 5.66 5 6 C11.6 6.33 18.2 6.66 25 7 C25 7.33 25 7.66 25 8 C17.97084466 8.79051291 11.37647765 9.25441822 4.375 8.0625 C-9.7288015 5.77240905 -22.96374084 6.35937383 -36.69140625 10.22265625 C-40 11 -40 11 -43 10 C-42.34 10 -41.68 10 -41 10 C-41 9.34 -41 8.68 -41 8 C-37.52674819 6.8422494 -34.63932552 6.93133348 -31 7 C-31 6.34 -31 5.68 -31 5 C-20.86946071 2.33030494 -10.29206742 2.02682756 0 4 C0 2.68 0 1.36 0 0 Z " fill="#C3535B" transform="translate(206,399)"/>
<path d="M0 0 C0.66 0.99 1.32 1.98 2 3 C-2.36178371 7.66259638 -5.29590268 8.0717416 -11.5625 8.3125 C-21.50981646 8.97838627 -28.85335222 12.44753615 -37 18 C-38.41764994 17.06398754 -39.83407568 16.1261208 -41.25 15.1875 C-42.03890625 14.66542969 -42.8278125 14.14335938 -43.640625 13.60546875 C-45.81092481 12.12865878 -47.91413768 10.59310127 -50 9 C-44.29370646 9.42797202 -40.58921384 11.84345952 -36 15 C-35.401875 14.4225 -34.80375 13.845 -34.1875 13.25 C-26.69263902 7.9595099 -18.47407555 6.44715267 -9.4831543 5.94677734 C-5.66701755 5.63515991 -4.23154623 5.24032523 -1.52734375 2.43359375 C-1.02332031 1.63050781 -0.51929688 0.82742187 0 0 Z " fill="#BC3833" transform="translate(179,97)"/>
<path d="M0 0 C0.33 0.66 0.66 1.32 1 2 C-0.0233962 4.29963146 -1.10384041 6.51279273 -2.25 8.75 C-7.65558657 19.84342476 -9.61009691 30.66248462 -9 43 C-12.84862956 37.22705566 -12.57201687 29.93081764 -11.2734375 23.27734375 C-9.61822784 17.37039324 -7.79951116 11.4717718 -5 6 C-4.34 5.67 -3.68 5.34 -3 5 C-2.835 4.34 -2.67 3.68 -2.5 3 C-2.335 2.34 -2.17 1.68 -2 1 C-1.34 0.67 -0.68 0.34 0 0 Z " fill="#BD5963" transform="translate(181,138)"/>
<path d="M0 0 C0.66 0 1.32 0 2 0 C2.56023383 9.75221844 1.0691707 18.16881201 -5 26 C-7 28 -7 28 -10.2578125 28.1953125 C-11.53398437 28.17210938 -12.81015625 28.14890625 -14.125 28.125 C-16.04699219 28.09792969 -16.04699219 28.09792969 -18.0078125 28.0703125 C-19.48894531 28.03550781 -19.48894531 28.03550781 -21 28 C-17.10493965 25.74068425 -13.75897006 25.68525916 -9.33984375 25.5390625 C-6.88857845 25.19330336 -6.88857845 25.19330336 -5.29296875 23.28125 C-1.33232294 16.29328277 -0.49643175 7.89155295 0 0 Z " fill="#E8AB89" transform="translate(182,75)"/>
<path d="M0 0 C3 1 3 1 4.29296875 3.0390625 C5.88717832 5.30368505 5.88717832 5.30368505 8.86328125 5.3984375 C10.57064453 5.38683594 10.57064453 5.38683594 12.3125 5.375 C20.6137748 5.69527859 26.64967828 8.34718054 34 12 C33.34 12.66 32.68 13.32 32 14 C31.319375 13.54625 30.63875 13.0925 29.9375 12.625 C24.20386293 9.45320077 18.8478361 8.82909779 12.375 8.75 C5.62264969 8.39601922 5.62264969 8.39601922 2.91796875 6.67578125 C1.13764083 4.55683188 0 2.8191152 0 0 Z " fill="#EBB38C" transform="translate(105,95)"/>
<path d="M0 0 C1.44528688 4.33586065 -0.59118701 7.04983751 -2.5 10.9375 C-3.04442749 12.06853149 -3.04442749 12.06853149 -3.59985352 13.22241211 C-6.73639473 19.65030969 -10.03628319 26.03719124 -14 32 C-14.33 32 -14.66 32 -15 32 C-15 30.35 -15 28.7 -15 27 C-14.34 27 -13.68 27 -13 27 C-13 26.01 -13 25.02 -13 24 C-12.34 24 -11.68 24 -11 24 C-11 22.68 -11 21.36 -11 20 C-10.34 20 -9.68 20 -9 20 C-9 19.01 -9 18.02 -9 17 C-8.34 17 -7.68 17 -7 17 C-7 15.68 -7 14.36 -7 13 C-6.34 13 -5.68 13 -5 13 C-4.87625 12.113125 -4.7525 11.22625 -4.625 10.3125 C-4.05587264 7.29612498 -3.23385564 4.79673946 -2 2 C-1.34 2 -0.68 2 0 2 C0 1.34 0 0.68 0 0 Z " fill="#C26A73" transform="translate(197,106)"/>
<path d="M0 0 C0.33 0.66 0.66 1.32 1 2 C0.06421005 4.35981813 -0.93347808 6.69631264 -2 9 C-2.66 9 -3.32 9 -4 9 C-4.33 11.97 -4.66 14.94 -5 18 C-5.66 18 -6.32 18 -7 18 C-7.3403125 18.928125 -7.3403125 18.928125 -7.6875 19.875 C-9.37929835 22.61410209 -10.99244161 23.05024472 -14 24 C-12.53819251 20.97933557 -10.91137815 18.1082446 -9.1796875 15.234375 C-8.37724609 13.90019531 -8.37724609 13.90019531 -7.55859375 12.5390625 C-7.00300781 11.61867188 -6.44742187 10.69828125 -5.875 9.75 C-5.31167969 8.81414062 -4.74835937 7.87828125 -4.16796875 6.9140625 C-2.7799699 4.60857289 -1.39060273 2.30391963 0 0 Z " fill="#C24F59" transform="translate(37,335)"/>
<path d="M0 0 C0 0.33 0 0.66 0 1 C-1.6396875 1.4021875 -1.6396875 1.4021875 -3.3125 1.8125 C-6.73166327 2.91358648 -7.77591981 3.42474926 -10 6 C-10.66 6 -11.32 6 -12 6 C-12 6.99 -12 7.98 -12 9 C-12.66 9 -13.32 9 -14 9 C-13.67 12.63 -13.34 16.26 -13 20 C-15.53722054 17.46277946 -15.38319839 16.34088191 -15.5 12.8125 C-15.3873061 7.77441978 -14.50334766 4.7673106 -10.93359375 1.171875 C-7.44954157 -0.93967177 -3.91810148 -0.54853421 0 0 Z " fill="#5D5D5D" transform="translate(77,521)"/>
<path d="M0 0 C2.54451156 3.81676733 4.02580955 7.80337757 5.6875 12.0625 C6.02072266 12.89072266 6.35394531 13.71894531 6.69726562 14.57226562 C7.00728516 15.36439453 7.31730469 16.15652344 7.63671875 16.97265625 C8.06537231 18.05945679 8.06537231 18.05945679 8.50268555 19.16821289 C9 21 9 21 8 23 C4.87129072 20.44014695 4.18922116 17.79064245 3 14 C2.195625 12.576875 2.195625 12.576875 1.375 11.125 C-0.39141701 7.11041589 -0.22508455 4.3516346 0 0 Z " fill="#BE5560" transform="translate(218,274)"/>
<path d="M0 0 C1.65 1.32 3.3 2.64 5 4 C4.46719784 8.22489602 3.12321801 10.54080716 0.4375 13.8125 C-0.20316406 14.60269531 -0.84382813 15.39289063 -1.50390625 16.20703125 C-1.99761719 16.79871094 -2.49132812 17.39039063 -3 18 C-3.33 16.68 -3.66 15.36 -4 14 C-3.360625 13.7525 -2.72125 13.505 -2.0625 13.25 C0.1462736 12.20487091 0.1462736 12.20487091 0.6875 10.125 C0.790625 9.42375 0.89375 8.7225 1 8 C1.226875 7.34 1.45375 6.68 1.6875 6 C2.09205762 3.41083122 1.33413341 2.19739621 0 0 Z " fill="#C26B75" transform="translate(268,370)"/>
<path d="M0 0 C1.4721791 4.54762175 0.02122065 7.84955454 -2 12 C-5.94904459 18.64968153 -5.94904459 18.64968153 -10 20 C-8.31338027 15.45910073 -5.99607926 11.59372682 -3.4375 7.5 C-2.03242942 5.05639899 -0.98016869 2.63891571 0 0 Z " fill="#BE5F69" transform="translate(110,182)"/>
<path d="M0 0 C1.9375 0.8125 1.9375 0.8125 4 2 C5.00496852 5.01490557 5.10335303 7.04181692 5.0625 10.1875 C5.05347656 11.08855469 5.04445312 11.98960938 5.03515625 12.91796875 C5.02355469 13.60503906 5.01195312 14.29210938 5 15 C4.34 15 3.68 15 3 15 C2.67 15.66 2.34 16.32 2 17 C2.02320313 16.35933594 2.04640625 15.71867187 2.0703125 15.05859375 C2.18440863 9.59012904 1.79791904 5.16901723 0 0 Z " fill="#4D4B49" transform="translate(148,27)"/>
<path d="M0 0 C1.51400391 0.01740234 1.51400391 0.01740234 3.05859375 0.03515625 C4.07050781 0.04417969 5.08242188 0.05320312 6.125 0.0625 C7.29869141 0.07990234 7.29869141 0.07990234 8.49609375 0.09765625 C8.49609375 0.75765625 8.49609375 1.41765625 8.49609375 2.09765625 C0.81004901 3.06925558 -6.76254024 3.20686047 -14.50390625 3.09765625 C-14.50390625 2.76765625 -14.50390625 2.43765625 -14.50390625 2.09765625 C-13.72144531 2.03707031 -12.93898437 1.97648437 -12.1328125 1.9140625 C-11.12089844 1.83027344 -10.10898437 1.74648438 -9.06640625 1.66015625 C-8.05707031 1.57894531 -7.04773437 1.49773437 -6.0078125 1.4140625 C-3.14092178 1.0517877 -2.89016076 0.11272078 0 0 Z " fill="#A21420" transform="translate(57.50390625,396.90234375)"/>
<path d="M0 0 C4.15711427 0.31178357 6.66337232 1.32619426 10 3.6875 C11.96533704 5.0812927 11.96533704 5.0812927 14 6 C17.43542211 5.49812911 17.43542211 5.49812911 20 4 C18.49336217 7.01327566 15.96833589 7.61056618 13 9 C11.58235006 8.06398754 10.16592432 7.1261208 8.75 6.1875 C7.56664062 5.40439453 7.56664062 5.40439453 6.359375 4.60546875 C4.18907519 3.12865878 2.08586232 1.59310127 0 0 Z " fill="#B92C2C" transform="translate(129,106)"/>
<path d="M0 0 C0 0.33 0 0.66 0 1 C-1.98567708 1.16276042 -3.97135417 1.32552083 -5.95703125 1.48828125 C-8.52125809 2.13056369 -9.46611439 2.85256015 -11 5 C-11.36146457 7.28330101 -11.36146457 7.28330101 -11.1875 9.6875 C-11.16042969 10.49574219 -11.13335937 11.30398438 -11.10546875 12.13671875 C-11.07066406 12.75160156 -11.03585938 13.36648438 -11 14 C-11.66 14 -12.32 14 -13 14 C-14.45147903 11.09704195 -14.37239025 9.22738221 -14 6 C-10.32387379 -0.40357469 -7.10280823 -0.8356245 0 0 Z " fill="#7A7A7A" transform="translate(214,520)"/>
<path d="M0 0 C10.74259681 2.70615034 10.74259681 2.70615034 14 7 C13.01 7.495 13.01 7.495 12 8 C9.6875 7.109375 9.6875 7.109375 7 5.75 C5.6696875 5.09257812 5.6696875 5.09257812 4.3125 4.421875 C2 3 2 3 0 0 Z " fill="#BF5D68" transform="translate(22,391)"/>
<path d="M0 0 C1 3 1 3 -1 8 C-4.63 8 -8.26 8 -12 8 C-11.67 6.35 -11.34 4.7 -11 3 C-10.34 3.66 -9.68 4.32 -9 5 C-6.67724823 5.40047444 -4.34260643 5.7397104 -2 6 C-1.855625 5.38125 -1.71125 4.7625 -1.5625 4.125 C-1 2 -1 2 0 0 Z " fill="#302821" transform="translate(148,46)"/>
<path d="M0 0 C0.33 0.66 0.66 1.32 1 2 C0.06421005 4.35981813 -0.93347808 6.69631264 -2 9 C-2.66 9 -3.32 9 -4 9 C-4.33 10.98 -4.66 12.96 -5 15 C-5.99 15 -6.98 15 -8 15 C-6.62712658 11.30123909 -4.93644547 8.0485524 -2.875 4.6875 C-2.33617187 3.80449219 -1.79734375 2.92148437 -1.2421875 2.01171875 C-0.83226562 1.34785156 -0.42234375 0.68398438 0 0 Z " fill="#C56C73" transform="translate(37,335)"/>
<path d="M0 0 C1.90747183 2.86120775 3.00353706 5.35254993 4.1875 8.5625 C4.55230469 9.53316406 4.91710937 10.50382813 5.29296875 11.50390625 C6 14 6 14 5 16 C4.896875 15.360625 4.79375 14.72125 4.6875 14.0625 C4.460625 13.381875 4.23375 12.70125 4 12 C3.01 11.67 2.02 11.34 1 11 C-0.47666292 7.50970582 -0.07164685 3.72563614 0 0 Z " fill="#C0636B" transform="translate(207,244)"/>
<path d="M0 0 C0 0.33 0 0.66 0 1 C-2.76867997 1.69740804 -5.53936862 2.38322853 -8.3125 3.0625 C-9.09818359 3.26166016 -9.88386719 3.46082031 -10.69335938 3.66601562 C-11.8293457 3.94155273 -11.8293457 3.94155273 -12.98828125 4.22265625 C-14.03302612 4.48187866 -14.03302612 4.48187866 -15.09887695 4.74633789 C-17 5 -17 5 -20 4 C-19.34 4 -18.68 4 -18 4 C-18 3.34 -18 2.68 -18 2 C-11.93184478 0.77100654 -6.20104812 -0.27560214 0 0 Z " fill="#C56F76" transform="translate(183,405)"/>
<path d="M0 0 C1.06798426 2.74159373 1.02884475 3.91055596 0.109375 6.76171875 C-0.33921875 7.72722656 -0.7878125 8.69273437 -1.25 9.6875 C-1.68828125 10.66074219 -2.1265625 11.63398438 -2.578125 12.63671875 C-4 15 -4 15 -7 16 C-5.35433477 10.31497465 -2.70967216 5.23318364 0 0 Z " fill="#C36F77" transform="translate(45,319)"/>
<path d="M0 0 C0.33 3.63 0.66 7.26 1 11 C0.34 11 -0.32 11 -1 11 C-1.33 8.03 -1.66 5.06 -2 2 C-3.98 2 -5.96 2 -8 2 C-5 0 -5 0 0 0 Z " fill="#B0292B" transform="translate(100,75)"/>
<path d="M0 0 C1.305239 3.91571701 0.32239848 5.03892997 -1.4375 8.6875 C-1.91058594 9.68136719 -2.38367188 10.67523438 -2.87109375 11.69921875 C-3.42990234 12.83810547 -3.42990234 12.83810547 -4 14 C-4.33 14 -4.66 14 -5 14 C-4.49202991 9.6822542 -3.80317221 5.96697886 -2 2 C-1.34 2 -0.68 2 0 2 C0 1.34 0 0.68 0 0 Z " fill="#BF616B" transform="translate(197,106)"/>
<path d="M0 0 C0 0.66 0 1.32 0 2 C-0.61488281 2.33773437 -1.22976562 2.67546875 -1.86328125 3.0234375 C-2.67152344 3.46945313 -3.47976562 3.91546875 -4.3125 4.375 C-5.11300781 4.81585938 -5.91351563 5.25671875 -6.73828125 5.7109375 C-8.53527943 6.73513335 -10.27900708 7.85267138 -12 9 C-12.66 7.68 -13.32 6.36 -14 5 C-13.319375 4.9175 -12.63875 4.835 -11.9375 4.75 C-9.28231457 4.07208032 -7.63219434 3.31087552 -5.3125 1.9375 C-2 0 -2 0 0 0 Z " fill="#EAB08C" transform="translate(154,104)"/>
<path d="M0 0 C-3.06890187 1.53445094 -5.70094266 0.54984289 -9 0 C-9.2475 0.61875 -9.495 1.2375 -9.75 1.875 C-11.20628639 4.35068687 -12.37812506 4.95125002 -15 6 C-14.06054899 2.52403128 -13.27573512 1.19878578 -10.3125 -0.9375 C-6.16999402 -2.26622833 -4.0016644 -1.52063247 0 0 Z " fill="#787674" transform="translate(147,23)"/>
<path d="M0 0 C0.66 0 1.32 0 2 0 C2.33 0.66 2.66 1.32 3 2 C5.52733235 2.65555119 5.52733235 2.65555119 8 3 C7.01 3.495 7.01 3.495 6 4 C6 4.66 6 5.32 6 6 C4.35 6.33 2.7 6.66 1 7 C1.33 6.34 1.66 5.68 2 5 C0.35 5 -1.3 5 -3 5 C-2.67 4.34 -2.34 3.68 -2 3 C-1.01 3 -0.02 3 1 3 C0.67 2.01 0.34 1.02 0 0 Z " fill="#BC3542" transform="translate(235,398)"/>
<path d="M0 0 C0.6875 1.8125 0.6875 1.8125 1 4 C0 5.6875 0 5.6875 -2 7 C-5.6875 7.6875 -5.6875 7.6875 -9 8 C-7.88625 7.13375 -7.88625 7.13375 -6.75 6.25 C-4.33912357 4.27746474 -2.15957299 2.23955718 0 0 Z " fill="#6A6A6A" transform="translate(99,534)"/>
<path d="M0 0 C0.66 0.33 1.32 0.66 2 1 C1.6875 2.875 1.6875 2.875 1 5 C-2 7 -2 7 -5 7 C-3.70700306 4.11562221 -2.34058637 2.12780579 0 0 Z " fill="#656565" transform="translate(119,478)"/>
<path d="M0 0 C3.41158256 1.13719419 4.11854601 2.04342944 6 5 C6 5.66 6 6.32 6 7 C8.64 7 11.28 7 14 7 C14 7.33 14 7.66 14 8 C6.23496241 8.91353383 6.23496241 8.91353383 3.2890625 6.734375 C0 2.81791908 0 2.81791908 0 0 Z " fill="#E3997B" transform="translate(105,95)"/>
<path d="M0 0 C0.33 0 0.66 0 1 0 C1.33 2.97 1.66 5.94 2 9 C2.33 9 2.66 9 3 9 C2.67 12.3 2.34 15.6 2 19 C1.67 19 1.34 19 1 19 C-0.00926479 14.84373632 -0.10239579 10.95634906 -0.0625 6.6875 C-0.05347656 5.43324219 -0.04445313 4.17898437 -0.03515625 2.88671875 C-0.01775391 1.45779297 -0.01775391 1.45779297 0 0 Z " fill="#C97780" transform="translate(82,81)"/>
<path d="M0 0 C2 3.75 2 3.75 2 6 C-2.95 6 -7.9 6 -13 6 C-12.67 5.34 -12.34 4.68 -12 4 C-8.37 4.33 -4.74 4.66 -1 5 C-0.67 3.35 -0.34 1.7 0 0 Z " fill="#998B76" transform="translate(148,49)"/>
<path d="M0 0 C2.23960447 2.87949147 4.29864224 5.76742026 6 9 C5.67 9.66 5.34 10.32 5 11 C0.07692308 6.81538462 0.07692308 6.81538462 -0.3125 2.6875 C-0.209375 1.800625 -0.10625 0.91375 0 0 Z " fill="#C05F69" transform="translate(246,338)"/>
<path d="M0 0 C2.23960447 2.87949147 4.29864224 5.76742026 6 9 C5.67 9.66 5.34 10.32 5 11 C1.51668565 7.98112756 0.20842856 5.43090471 -1 1 C-0.67 0.67 -0.34 0.34 0 0 Z " fill="#BD575F" transform="translate(240,327)"/>
<path d="M0 0 C1.04976108 3.41172352 1.45374142 6.44569217 1 10 C-1.5 11.875 -1.5 11.875 -4 13 C-3.52140759 11.39566191 -3.04210442 9.79153584 -2.5625 8.1875 C-2.29566406 7.29417969 -2.02882812 6.40085937 -1.75390625 5.48046875 C-1.19612127 3.64526945 -0.60655425 1.81966274 0 0 Z " fill="#C5636E" transform="translate(64,274)"/>
<path d="M0 0 C1.90389849 2.85584773 2.69462177 4.9311762 3.625 8.1875 C4.01558594 9.53908203 4.01558594 9.53908203 4.4140625 10.91796875 C4.60742188 11.60503906 4.80078125 12.29210937 5 13 C4.34 12.67 3.68 12.34 3 12 C3 11.34 3 10.68 3 10 C2.34 10 1.68 10 1 10 C-0.60725635 6.78548731 -0.05748185 3.56387464 0 0 Z " fill="#C46873" transform="translate(213,260)"/>
<path d="M0 0 C0.66 0.33 1.32 0.66 2 1 C1.6875 3.375 1.6875 3.375 1 6 C0.01 6.66 -0.98 7.32 -2 8 C-2.6875 5.6875 -2.6875 5.6875 -3 3 C-1.5625 1.1875 -1.5625 1.1875 0 0 Z " fill="#C03F4D" transform="translate(86,77)"/>
<path d="M0 0 C2.34914492 2.34914492 2.73140357 3.95679446 3.625 7.125 C3.88539063 8.03507812 4.14578125 8.94515625 4.4140625 9.8828125 C4.70410156 10.93082031 4.70410156 10.93082031 5 12 C4.01 11.67 3.02 11.34 2 11 C0.60955102 7.12137916 0 4.13537997 0 0 Z " fill="#C56A73" transform="translate(222,285)"/>
<path d="M0 0 C1.60226148 4.00565371 0.47694566 7.08609399 -1 11 C-1.99 11.33 -2.98 11.66 -4 12 C-3.52309796 10.37433394 -3.04340334 8.74948689 -2.5625 7.125 C-2.29566406 6.22007812 -2.02882813 5.31515625 -1.75390625 4.3828125 C-1 2 -1 2 0 0 Z " fill="#C16971" transform="translate(79,236)"/>
<path d="M0 0 C0.33 0.66 0.66 1.32 1 2 C0.00390625 4.3828125 0.00390625 4.3828125 -1.4375 7.125 C-1.91058594 8.03507813 -2.38367188 8.94515625 -2.87109375 9.8828125 C-3.24363281 10.58148438 -3.61617187 11.28015625 -4 12 C-4.33 12 -4.66 12 -5 12 C-5 10.02 -5 8.04 -5 6 C-4.34 5.67 -3.68 5.34 -3 5 C-2.835 4.34 -2.67 3.68 -2.5 3 C-2.335 2.34 -2.17 1.68 -2 1 C-1.34 0.67 -0.68 0.34 0 0 Z " fill="#C8777E" transform="translate(181,138)"/>
<path d="M0 0 C2.79828356 0.38597015 3.8205884 0.80136573 5.75 2.9375 C7 5 7 5 7 7 C3.17053157 5.54744301 1.87949705 3.57104439 0 0 Z " fill="#646464" transform="translate(177,540)"/>
<path d="M0 0 C4.455 2.97 4.455 2.97 9 6 C6 7 6 7 2.8125 5.5625 C1.884375 5.046875 0.95625 4.53125 0 4 C0 2.68 0 1.36 0 0 Z " fill="#686868" transform="translate(186,535)"/>
<path d="M0 0 C0.33 1.32 0.66 2.64 1 4 C-0.65 5.32 -2.3 6.64 -4 8 C-4.66 7.67 -5.32 7.34 -6 7 C-4.02 4.69 -2.04 2.38 0 0 Z " fill="#C25C66" transform="translate(17,366)"/>
<path d="M0 0 C0.99 0 1.98 0 3 0 C3 1.98 3 3.96 3 6 C2.01 6.33 1.02 6.66 0 7 C0 4.69 0 2.38 0 0 Z " fill="#4F4F4F" transform="translate(148,543)"/>
<path d="M0 0 C0.33 0 0.66 0 1 0 C1 2.64 1 5.28 1 8 C-0.98 8.99 -0.98 8.99 -3 10 C-2.01 6.7 -1.02 3.4 0 0 Z " fill="#C2636B" transform="translate(74,248)"/>
<path d="M0 0 C0.93065133 2.60582371 1.14917407 3.64198224 0.0625 6.25 C-0.4634375 7.11625 -0.4634375 7.11625 -1 8 C-1.99 8 -2.98 8 -4 8 C-2.87548273 5.0280615 -1.77706209 2.66559313 0 0 Z " fill="#C0666E" transform="translate(92,212)"/>
<path d="M0 0 C0.33 0 0.66 0 1 0 C1.07654536 4.51617599 1.10228696 8.59085217 0 13 C-0.33 13 -0.66 13 -1 13 C-1.33 10.03 -1.66 7.06 -2 4 C-1.34 4 -0.68 4 0 4 C0 2.68 0 1.36 0 0 Z " fill="#767676" transform="translate(116,509)"/>
<path d="M0 0 C1.32 1.65 2.64 3.3 4 5 C3.34 6.32 2.68 7.64 2 9 C0.4375 6.1875 0.4375 6.1875 -1 3 C-0.67 2.01 -0.34 1.02 0 0 Z " fill="#C4646E" transform="translate(102,136)"/>
<path d="M0 0 C0.33 0 0.66 0 1 0 C0.88541307 1.43836751 0.75790884 2.87570966 0.625 4.3125 C0.55539063 5.11300781 0.48578125 5.91351563 0.4140625 6.73828125 C0 9 0 9 -2 12 C-2.05422947 10.5629191 -2.09289723 9.12524538 -2.125 7.6875 C-2.14820313 6.88699219 -2.17140625 6.08648437 -2.1953125 5.26171875 C-2 3 -2 3 0 0 Z " fill="#C46970" transform="translate(200,94)"/>
<path d="M0 0 C1.75 0.125 1.75 0.125 4 1 C6.25 4.0625 6.25 4.0625 8 7 C4.2047869 5.50902342 2.38957269 3.24299151 0 0 Z " fill="#5E5E5E" transform="translate(65,543)"/>
<path d="M0 0 C1.95582488 2.93373731 3.56224304 5.78216298 5 9 C4.67 9.66 4.34 10.32 4 11 C1 9 1 9 0.48828125 6.8359375 C0.43027344 6.02382813 0.37226563 5.21171875 0.3125 4.375 C0.24675781 3.55773437 0.18101562 2.74046875 0.11328125 1.8984375 C0.07589844 1.27195312 0.03851563 0.64546875 0 0 Z " fill="#767676" transform="translate(181,524)"/>
<path d="M0 0 C0.66 0 1.32 0 2 0 C1.375 1.875 1.375 1.875 0 4 C-3.125 5.25 -3.125 5.25 -6 6 C-5.67 5.01 -5.34 4.02 -5 3 C-3.35 2.67 -1.7 2.34 0 2 C0 1.34 0 0.68 0 0 Z " fill="#C26871" transform="translate(252,395)"/>
<path d="M0 0 C0.33 0.66 0.66 1.32 1 2 C1.66 2.33 2.32 2.66 3 3 C2.67 4.32 2.34 5.64 2 7 C1.34 7 0.68 7 0 7 C-0.33 7.66 -0.66 8.32 -1 9 C-0.67 6.03 -0.34 3.06 0 0 Z " fill="#6B6B6B" transform="translate(105,516)"/>
<path d="M0 0 C2.79872437 2.52788007 4.45773019 4.20411134 5 8 C2 7 2 7 0 4 C0 2.68 0 1.36 0 0 Z " fill="#C26B76" transform="translate(189,208)"/>
<path d="M0 0 C0.33 0.66 0.66 1.32 1 2 C-0.32 3.32 -1.64 4.64 -3 6 C-3.66 5.67 -4.32 5.34 -5 5 C-4 2 -4 2 -1.9375 0.8125 C-1.298125 0.544375 -0.65875 0.27625 0 0 Z " fill="#BE3E49" transform="translate(103,200)"/>
<path d="M0 0 C0.99 0 1.98 0 3 0 C3.33 2.31 3.66 4.62 4 7 C1.49962266 4.82575883 0.56371414 3.26954202 0 0 Z " fill="#C05D66" transform="translate(93,122)"/>
</svg>
